# xmcd CD database file
#
# Track frame offsets:
#	150
#	19575
#	39300
#	57255
#
# Disc length: 1021 seconds
#
# Revision: 0
# Processed by: cddbd v1.5.1PL2 Copyright (c) Steve Scherf et al.
# Submitted via: CDex 1.50beta8
#
DISCID=2603fb04
DTITLE=Lady Marmalade - Rendezvous
DYEAR=2006
DGENRE=JPop
TTITLE0=Rendezvous
TTITLE1=終わらない夢
TTITLE2=Identity is all
TTITLE3=Rendezvous(Backing Track)
EXTD=YEAR: 2006
EXTT0=
EXTT1=
EXTT2=
EXTT3=
PLAYORDER=
